{"title":"Prince.Of.Persia.The.Sands.Of.Time.TELESYNC.XVID.FEEL-FREE","uid":5636993,"size":1086852684,"categoryP":"video","categoryS":"movies","magnet":"?xt=urn:btih:222a58030b0bdc158bc36928fdf456b129a1ca88&amp;dn=Prince.Of.Persia.The.Sands.Of.Time.TELESYNC.XVID.FEEL-FREE&amp;tr=udp%3A%2F%2Ftracker.openbittorrent.com%3A80&amp;tr=udp%3A%2F%2Fopen.demonii.com%3A1337&amp;tr=udp%3A%2F%2Ftracker.coppersurfer.tk%3A6969&amp;tr=udp%3A%2F%2Fexodus.desync.com%3A6969","seeders":0,"leechers":0,"uploader":"hiest","files":10,"time":1276930738,"description":"Genre:Action | Adventure | Fantasy | Romanc\nLanguage:English\nIMDb:http://www.imdb.com/title/tt0473075/\nSource Video:NTSC DVDR-PrisM.Thanks\nSource Audio:REX.Thanks\nSubtitles: ROMANA\nEncoder: Tony2\n...........................................\nGeneral\nComplete name : Prince.Of.Persia.The.Sands.Of.Time.TELESYNC.XVID.FEEL-FREE\nFormat : AVI\nFormat/Info : Audio Video Interleave\nFormat profile : OpenDML\nFile size : 1.01 GiB\nOverall bit rate : 504 Kbps\n............................................\nVideo\nFormat : xvid\nCodec ID : xvid\nDuration : 4h 46mn\nBit rate : 450 Kbps\nWidth : 704 pixels\nHeight : 304 pixels\nDisplay aspect ratio : 2.35:1\nFrame rate : 25.000 fps\nResolution : 24 bits\nBits/(Pixel*Frame) : 0.084\nStream size : 922 MiB (89%)\n.............................................\nAudio\nID : 1\nFormat : MPEG Audio\nFormat version : Version 1\nFormat profile : Layer 3\nFormat settings, Mode : Joint stereo / MS Stereo\nCodec ID : 55\nCodec ID/Hint : MP3\nDuration : 1h 47mn\nBit rate mode : Constant\nBit rate : 128 Kbps\nChannel(s) : 2 channels\nSampling rate : 48.0 KHz\nResolution : 16 bits\nStream size : 98.4 MiB (10%)\nAlignment : Aligned on interleaves\nInterleave, duration : 24 ms (0.60 video frame)\n.............................................\nPlot: \nBased on the video game, which follows an adventurous prince who teams up with a rival princess to stop an angry ruler from unleashing a sandstorm that could destroy the world.\n...................................................\nScreenshots: &lt;a href=&quot;\nhttp://postimg.com/image/17000/16562.jpg&quot; rel=&quot;nofollow&quot; target=&quot;_NEW&quot;&gt;\nhttp://postimg.com/image/17000/16562.jpg&lt;/a&gt; &lt;a href=&quot;\nhttp://postimg.com/image/17000/16563.jpg&quot; rel=&quot;nofollow&quot; target=&quot;_NEW&quot;&gt;\nhttp://postimg.com/image/17000/16563.jpg&lt;/a&gt;\n..........................................................","torrent":{"xt":"urn:btih:222a58030b0bdc158bc36928fdf456b129a1ca88","amp;dn":"Prince.Of.Persia.The.Sands.Of.Time.TELESYNC.XVID.FEEL-FREE","amp;tr":["udp%3A%2F%2Ftracker.openbittorrent.com%3A80","udp%3A%2F%2Fopen.demonii.com%3A1337","udp%3A%2F%2Ftracker.coppersurfer.tk%3A6969","udp%3A%2F%2Fexodus.desync.com%3A6969"],"infoHash":"222a58030b0bdc158bc36928fdf456b129a1ca88","infoHashBuffer":{"type":"Buffer","data":[34,42,88,3,11,11,220,21,139,195,105,40,253,244,86,177,41,161,202,136]},"announce":[],"urlList":[]}}